<svg xmlns="http://www.w3.org/2000/svg" viewBox="0 0 153.44 25.48"><defs><style>.cls-1{fill:#fff;}</style></defs><g id="レイヤー_2" data-name="レイヤー 2"><g id="レイヤー_1-2" data-name="レイヤー 1"><path class="cls-1" d="M20.18,3a11.89,11.89,0,0,0-7-2.91V10Z"/><path class="cls-1" d="M28.88,10.49a15.12,15.12,0,0,0-3.67-8.86l-8.86,8.86Z"/><path class="cls-1" d="M13.15,24a12,12,0,0,0,7-2.91l-7-7Z"/><path class="cls-1" d="M14.33,12.83l7,7a12,12,0,0,0,2.92-7Z"/><path class="cls-1" d="M2.7,18.41A18.8,18.8,0,0,1,0,25.48a11.18,11.18,0,0,0,4.83-1.32,11.33,11.33,0,0,0,2.5-1.85L3.62,18.22A7.15,7.15,0,0,1,2.7,18.41Z"/><path class="cls-1" d="M11.55,0a12,12,0,0,0,0,23.92ZM7.31,2.32A1.79,1.79,0,1,1,5.53,4.1,1.79,1.79,0,0,1,7.31,2.32ZM8,20.82A10.85,10.85,0,0,1,4.21,6.23L6.28,7.41a8.31,8.31,0,0,0-1.09,3.86,8.48,8.48,0,0,0,4,7.52Z"/><path class="cls-1" d="M34.5,18.11a9.14,9.14,0,0,0,3.77.89c2.07,0,3.44-.89,3.44-2.32s-1-2.19-3-2.83c-2.83-.89-4-2.47-4-5,0-3.69,3.21-5.27,6.6-5.27a7.77,7.77,0,0,1,3.7.84l-.26,3a6.93,6.93,0,0,0-3.49-1c-1.84,0-3,.87-3,2.24s.87,2.22,3.08,2.91c2.83.89,4,2.52,4,4.71,0,3.65-3.16,5.53-7.14,5.53a10,10,0,0,1-3.94-.79Z"/><path class="cls-1" d="M59.1,21.5V14.08h-8V21.5H47.78V4h3.37v7.27h8V4h3.36V21.5Z"/><path class="cls-1" d="M69.18,16.25,67.6,21.5H64L69.94,4h4l6,17.54H76.21l-1.58-5.25Zm2.72-9L70,13.39h3.72Z"/><path class="cls-1" d="M81.47,4a38.62,38.62,0,0,1,4.84-.31c4.36,0,6.55,1.94,6.55,4.89,0,2.35-1.53,3.72-3.7,4.16,1.61.23,2.35,1.93,2.76,3.92a38.5,38.5,0,0,0,1.35,4.82H89.6c-.41-1.38-.84-3.34-1.1-4.62s-.61-2.19-2.47-2.19h-1.2V21.5H81.47Zm4.25,8c2.27,0,3.52-1.23,3.52-2.81s-.87-2.6-2.88-2.6c-.46,0-1,0-1.53.08V12Z"/><path class="cls-1" d="M98.55,6.92v4.31H105v2.85H98.55v4.56h7.34V21.5H95.19V4.07h10.6V6.92Z"/><path class="cls-1" d="M116.42,6.16a1.94,1.94,0,0,1-3.87,0,1.94,1.94,0,0,1,3.87,0ZM112.8,9.21h3.37V21.5H112.8Z"/><path class="cls-1" d="M122.14,11.53A3.5,3.5,0,0,1,125.73,9a4.1,4.1,0,0,1,4.38,4.33V21.5h-3.36V14.64c0-1.58-.71-2.67-2.14-2.67s-2.22,1.27-2.22,3.21V21.5H119V9.21h2.82Z"/><path class="cls-1" d="M133.48,8.6c0-4.08,2.65-6.09,6-6.09a6.27,6.27,0,0,1,2.09.33l-.23,2.78a4.89,4.89,0,0,0-1.83-.31c-1.66,0-2.7,1.18-2.7,3v1h3.34V12h-3.34V21.5h-3.37V12h-1.7V9.31h1.7Z"/><path class="cls-1" d="M153.44,15.36c0,4.1-2.72,6.39-6.14,6.39s-6.14-2.29-6.14-6.39S143.88,9,147.3,9,153.44,11.23,153.44,15.36Zm-8.74,0c0,2.49,1.05,3.79,2.6,3.79s2.6-1.3,2.6-3.79-1-3.8-2.6-3.8S144.7,12.83,144.7,15.36Z"/></g></g></svg>